<?xml version="1.0" encoding="UTF-8"?>
<!-- Generator: Adobe Illustrator 16.2.1, SVG Export Plug-In . SVG Version: 6.00 Build 0)  -->
<!DOCTYPE svg PUBLIC "-//W3C//DTD SVG 1.1//EN" "http://www.w3.org/Graphics/SVG/1.1/DTD/svg11.dtd">
<svg version="1.1" id="Ebene_1" xmlns="http://www.w3.org/2000/svg" xmlns:xlink="http://www.w3.org/1999/xlink" x="0px" y="0px" width="332.948px" height="192px" viewBox="0 0 332.948 192" enable-background="new 0 0 332.948 192" xml:space="preserve">
<g>
	<rect x="211" y="166" fill="#FFFFFF" width="26" height="26"/>
	<rect x="192" y="166" fill="#FFFFFF" width="16" height="26"/>
	<rect x="211" y="136" fill="#FFFFFF" width="26" height="26"/>
	<rect x="78" y="106" fill="#FFFFFF" width="159" height="26"/>
	<rect x="68" y="76" fill="#FFFFFF" width="109" height="26"/>
	<rect x="72" y="47" fill="#FFFFFF" width="105" height="26"/>
	<rect x="72" y="18" fill="#FFFFFF" width="105" height="26"/>
	<rect x="20" y="59" fill="#FFFFFF" width="47" height="10"/>
	<rect y="51" fill="#FFFFFF" width="17" height="18"/>
	<rect x="181" y="23" fill="#FFFFFF" width="56" height="66"/>
	<rect x="242" y="23" fill="#FFFFFF" width="68" height="79"/>
	<rect x="300" y="119" fill="#FFFFFF" width="20" height="65"/>
	<rect x="181" fill="#FFFFFF" width="56" height="20"/>
	<rect x="181" y="94" fill="#FFFFFF" width="56" height="8"/>
	<rect x="289" y="104" fill="#FFFFFF" width="31" height="13"/>
	<rect x="313" y="71" fill="#FFFFFF" width="7" height="31"/>
	<rect x="129" y="136" fill="#FFFFFF" width="57" height="13"/>
	<rect x="192" y="136" fill="#FFFFFF" width="16" height="26"/>
	<rect x="97" y="166" fill="#FFFFFF" width="26" height="26"/>
	<rect x="78" y="166" fill="#FFFFFF" width="16" height="26"/>
	<rect x="97" y="136" fill="#FFFFFF" width="26" height="26"/>
	<rect x="78" y="136" fill="#FFFFFF" width="16" height="26"/>
</g>
<rect x="293.948" y="80.411" fill="#7FA317" width="39" height="13.125"/>
</svg>